<svg xmlns="http://www.w3.org/2000/svg" viewBox="0 0 128 128">
  <defs>
    <linearGradient id="bg" x1="0" y1="0" x2="1" y2="1">
      <stop offset="0%" stop-color="#0B1220"/>
      <stop offset="100%" stop-color="#06222A"/>
    </linearGradient>
    <linearGradient id="shield" x1="0" y1="0" x2="0" y2="1">
      <stop offset="0%" stop-color="#3CF0FF"/>
      <stop offset="100%" stop-color="#00B8D4"/>
    </linearGradient>
  </defs>

  <rect x="4" y="4" width="120" height="120" rx="26" fill="url(#bg)"/>
  <rect x="4" y="4" width="120" height="120" rx="26" fill="none" stroke="#00E5FF" stroke-opacity="0.25" stroke-width="2"/>

  <path d="M64 16 L100 28 V58 C100 88 84 104 64 114 C44 104 28 88 28 58 V28 Z"
        fill="url(#shield)"/>
  <path d="M64 16 L100 28 V58 C100 88 84 104 64 114 C44 104 28 88 28 58 V28 Z"
        fill="none" stroke="#E0FBFF" stroke-opacity="0.5" stroke-width="1.5"/>

  <path d="M46 62 L59 75 L84 48"
        fill="none" stroke="#06222A" stroke-width="9" stroke-linecap="round" stroke-linejoin="round"/>
</svg>
